<svg xmlns="http://www.w3.org/2000/svg" viewBox="0 0 32 32" width="32" height="32">
  <circle cx="16" cy="16" r="14" fill="#fff"/>
  <path d="M16 2a14 14 0 0 0-4.1 27.3L20.1 4.7A14 14 0 0 0 16 2z" fill="#FC4D4D"/>
  <path d="M11.9 29.3A14 14 0 0 0 16 30l4.1-1.5L16 16z" fill="#4DA6FF"/>
  <path d="M20.1 4.7L16 16l4.1 12.5A14 14 0 0 0 20.1 4.7z" fill="#4DA6FF"/>
  <path d="M16 30a14 14 0 0 0 4.1-1.5L16 16z" fill="#4285F4"/>
  <path d="M2 16a14 14 0 0 0 9.9 13.3L16 16 2 16z" fill="#34A853"/>
  <path d="M2 16h14L11.9 29.3A14 14 0 0 1 2 16z" fill="#FBBC04"/>
  <path d="M16 2a14 14 0 0 0-4.1.7L16 16h14A14 14 0 0 0 16 2z" fill="#EA4335"/>
  <path d="M30 16H16l4.1 12.5A14 14 0 0 0 30 16z" fill="#4285F4"/>
</svg>