<svg xmlns="http://www.w3.org/2000/svg" viewBox="0 0 2048 2048">
 <rect width="2048" height="2048" rx="224" ry="224" fill="#1051a9" />
 <g fill="#1051a9">
  <path d="M1393 1275.6 c-21.8 -7.2 -89.2 -28.2 -137 -42.6 -19.2 -5.8 -52.4 -16.2 -73.4 -23 l-38.6 -12.4 0 -19 0 -19.2 9.6 1.2 c19 2.2 68.2 11.4 97.4 18.4 95.8 22.6 143 44.4 167.4 77.8 4 5.8 5.6 10 5.6 16.6 0 8.4 -.2 8.6 -6.4 8.4 -3.6 -.2 -14.6 -2.8 -24.6 -6.2z M616 1245.6 c0 -3.6 1.2 -10.6 2.8 -15.6 1.4 -5 3.4 -16.8 4.2 -26.4 1.6 -20.8 7.4 -31.6 22 -41.6 23.2 -15.8 60.4 -25 173 -42 14.8 -2.4 38.6 -6 52.8 -8 14 -2.2 28.2 -4 31.4 -4 l5.8 0 0 42.8 0 43 -8.4 1 c-110.2 14.8 -190.8 30.6 -245.6 48.4 -15.2 4.8 -29.8 8.8 -32.8 8.8 -4.6 0 -5.2 -.8 -5.2 -6.4z M1110 1186.6 c0 -6.4 -.6 -16.4 -1.4 -22.2 l-1.2 -10.6 7.8 .6 7.8 .6 .6 21.6 .6 21.4 -7.2 0 -7 0 0 -11.4z M1384 1100.6 c-53.6 -19 -59 -20.2 -191 -47.4 l-50 -10.4 -.6 -10.8 c-.4 -6 0 -14 .6 -17.8 l1.2 -6.8 31.4 1.2 c51.8 2.2 130.6 10.6 172.4 18.4 23 4.2 46 12.2 57.4 19.8 14 9.6 19.8 22 21.8 45.8 l1.2 17.4 -9.6 -.2 c-6 -.2 -19.6 -3.8 -34.8 -9.2z M1110 1031 l0 -25 7 0 7 0 0 25 0 25 -7 0 -7 0 0 -25z M725 922.6 c-57.6 -3.6 -92.8 -14 -115 -34 -12.4 -11.2 -17.8 -22 -18 -35.4 0 -8.2 1 -10.6 6.8 -16.4 l6.8 -6.8 151.2 0 151.2 0 0 41 c0 31.4 -.6 41 -2.4 41 -1.4 0 -17.4 1.8 -35.6 4 -56 6.6 -108 9 -145 6.6z M1369 914.8 c-38 -6.4 -143 -17 -202 -20.4 l-24 -1.4 0 -31 0 -31 150 -.6 c98.4 -.4 152.4 .2 157.2 1.4 11.2 3.4 16.4 10.4 17.2 23.8 1.4 19 -7.4 27.8 -37.4 37.4 -13.4 4.2 -17.4 7.6 -21.4 17.6 -3 7.2 -3.2 7.4 -13.4 7.2 -5.6 -.2 -17.4 -1.4 -26.2 -3z" />
 </g>
 <g fill="#ffffff">
  <path d="M832 1687.2 l0 -30.8 13.4 -2.4 c29.4 -5.6 58.8 -27 71.4 -51.6 11.2 -22.2 11.2 -21.2 11.2 -174.8 0 -77.8 -.4 -141.6 -1 -141.6 -2.2 0 -82.4 12.8 -102 16.2 -12 2.2 -27.4 4.8 -34 5.8 -36.2 5.6 -91.8 20 -121 31.4 -36.6 14 -59 35 -69 64.6 -9 26.4 -21.4 36 -46.2 36 -28.4 0 -43.8 -14 -46.2 -41.4 -4.8 -57.8 43.4 -104 140.4 -135.2 54 -17.4 127.2 -32 231 -46.2 l47 -6.4 .6 -61.4 .4 -61.4 -5.6 0 c-10.6 0 -89 11.2 -169.4 24.2 -70.6 11.4 -109.4 26 -130.8 49 -10 10.6 -12.8 15.2 -16 26.4 -2.2 7.4 -4.4 20.6 -5.2 29.4 -1.6 20.4 -8 33.2 -20.4 40.4 -7.8 4.6 -10.2 5 -28.2 4.2 -18 -.6 -20.4 -1 -27 -6.2 -4.2 -3.2 -9.4 -9.4 -12 -14 -4 -7.6 -4.4 -11.2 -4.4 -38.4 0 -27.4 .6 -31.4 5.6 -45.6 14.2 -40.4 41.8 -66.8 90.4 -86 49.4 -19.6 108.6 -31.6 245 -49.4 34.6 -4.4 66.4 -8.6 70.6 -9.4 7.4 -1.2 7.4 -1.2 7.4 -10.8 l0 -9.8 -8.2 0 c-4.6 0 -13.8 1 -20.6 2 -17.2 2.8 -64.2 9.2 -90.2 12.4 -13.6 1.6 -45.2 2.6 -83 2.6 -68.6 0 -84.6 -1.8 -121.4 -14 -40.4 -13.4 -66.6 -29 -93.8 -56 -39.6 -39 -57.8 -81.2 -60.2 -139 -1.2 -31.2 1 -49.6 9.2 -73.4 17.4 -50.6 57.6 -88 110.2 -102.4 12.6 -3.6 20.8 -4.2 51 -4.2 45 0 74.8 -2.8 98.4 -9 46 -12.2 75.4 -28.2 105.8 -58 41.4 -40.6 63.4 -86.6 75 -157.6 4.6 -28 8.4 -38 18.6 -47.8 18.4 -17.8 29.4 -19.6 125.6 -19.6 l77.6 0 0 146 0 146 171.6 0 c195.4 0 185.6 -.8 222.4 17.2 16.2 8 21.6 12 37 27.6 14.6 14.6 20 22 27.6 36.6 14.4 28 17.8 43.4 18 80.6 .2 25.6 -.6 34 -4.2 48.6 -11.6 46.2 -36.2 77.4 -82 104 -17.8 10.4 -28.6 10.2 -55.4 -1.4 -19.6 -8.4 -20 -8.8 -20.6 -15.8 -.6 -6.8 -.2 -7.4 8.6 -11.2 31.4 -13.8 46.2 -37.8 38.2 -61.6 -4.2 -12.4 -13 -21.8 -27.2 -28.4 l-11 -5.2 -161.6 -.6 -161.4 -.6 .4 49.6 .6 49.6 14 1.4 c7.8 .8 43.2 3.6 79 6.6 114.2 9 153.8 14.2 195.8 25 70.8 18.6 114.2 55.2 127.4 107.8 4 15.6 4.6 53.8 1.2 65.6 -1.4 4.6 -6.4 12.6 -11.2 17.8 l-8.6 9.6 -19 .8 c-21.4 1 -30.4 -1.2 -40 -9.2 -8.4 -7.2 -11.6 -15.8 -14.8 -40.6 -4 -33.2 -13.6 -49 -39 -64 -34 -20.2 -88.6 -30 -228.8 -40.8 -56 -4.4 -77.4 -6.8 -88.6 -10 -14.8 -4.4 -27 -13.6 -33 -24.6 -4.8 -8.8 -5.4 -12.4 -6.4 -36.6 -.4 -14.8 -1 -44.6 -1 -66.2 l0 -39.6 -10 0 -10 0 .4 214.6 .6 214.4 6.8 13.8 c12.6 25.8 32.8 40.2 71.2 51.2 l12 3.4 1 133.8 c1 132.4 1.2 134 5.6 145.6 6.6 17.4 12.8 27 24.8 38.6 13.4 12.4 27.6 20 48.6 25.6 l16 4.4 0 29.8 0 29.8 -192.4 .6 -192.6 .4 0 -30.8z m0 -748.2 c17 -1.4 45.6 -4.4 63.6 -6.2 l32.4 -3.6 0 -59.6 0 -59.8 -159.4 .6 c-116.6 .6 -161.4 1.4 -166.6 3.2 -9.8 3.2 -21.4 13.4 -26 22.6 -5.8 11.2 -5.2 23.2 2.2 37 18 34.6 62.6 59.2 120.8 66.6 22.2 2.8 99 2.4 133 -.8z M1461 1397.8 c-7.6 -2.2 -34.2 -10.6 -59 -18.8 -40 -13.2 -164.4 -52.4 -250 -79 -69.2 -21.6 -82.2 -27.8 -92.6 -44.6 -7.6 -11.8 -9.2 -26.2 -9.4 -76.8 l0 -40.6 8 0 c4.6 0 11.4 1.6 15.6 3.8 6.8 3.4 16.2 6.4 40 12.2 l8.4 2.2 0 26.8 0 26.6 9.6 3.2 c5.2 1.6 33.2 10.2 62.4 19.2 98.6 30.4 245.4 76.4 253.6 79.6 2.6 .8 2.8 -1.2 1.8 -13.8 -2.2 -28.6 -15 -52.6 -38.2 -72 -16.8 -14 -56 -34.2 -87.2 -44.8 -30.8 -10.6 -92.4 -25.2 -165 -38.8 -35.2 -6.8 -67.4 -13 -71.4 -14.2 -13 -3.8 -26.2 -14 -31.6 -25 -4.8 -9.8 -5 -11.2 -5.6 -62.4 l-.8 -52.6 8 0 c4.4 0 13 2.2 19 5.2 6.2 2.8 19 7 28.4 9.2 l17 4.2 0 25.6 0 25.6 10.6 2 c5.6 1.2 32 6.2 58.4 11.2 122.4 23.4 193.4 43 241 67 55.8 28 92.8 69.4 106.4 118.8 5.2 18.2 7.4 82.8 3.6 101.8 -4.2 21.2 -15 36.2 -29.8 41.2 -10.4 3.4 -35.4 2.4 -51.2 -2z m-344.4 -236 c-.8 -.8 -1.2 5.8 -.6 14.8 l1 16.4 .6 -14.8 c.4 -8.2 -.2 -15.6 -1 -16.4z m.8 -140.2 c-.4 -5.8 -.6 -1.6 -.6 9.4 0 11 .2 15.8 .6 10.6 .4 -5.2 .4 -14.2 0 -20z" />
 </g>
 <g fill="#084394">
  <path d="M812.6 1742.6 c-6 -.8 -6.4 -1.4 -7.6 -11.4 -.8 -5.8 -1 -29.2 -.6 -52 .8 -47.6 0 -46 19.4 -48.2 16.8 -1.8 42.4 -10.2 51.4 -16.6 4.4 -3.2 10.8 -10.2 14.4 -15.6 12.2 -19.4 12.4 -20.6 12.4 -159.4 0 -118.8 -.2 -125.6 -3.4 -124.6 -2 .6 -12.6 2.4 -23.6 4 -109 16.4 -186 35.4 -217.6 53.8 -13.2 7.8 -26.2 23 -30.4 35.6 -9.8 29.8 -28 48.8 -53.6 55.8 -12 3.2 -34.8 1.6 -48.2 -3.4 -21.2 -7.8 -39 -31.6 -43.2 -57.4 -5.4 -33.8 12.6 -75.8 44.8 -104.6 l11.2 -9.8 -11.6 -4.8 c-21.8 -9 -36.8 -27.8 -43.8 -54.6 -6.2 -24.6 -.2 -67.8 13.4 -96.6 13 -27 41.6 -55.2 74.4 -73.6 13.6 -7.4 44.4 -19.8 55.6 -22.2 3.8 -.8 9.2 -2.6 11.8 -4 4.6 -2.4 4.4 -2.6 -4.6 -3.8 -14 -2.2 -49.6 -14.4 -71 -24.4 -29.4 -13.8 -52.2 -30.2 -75.2 -54 -8 -8.2 -25.8 -30.4 -26.8 -33.4 -.4 -1.4 -2.8 -5 -5.2 -8.4 -6.8 -9.2 -19.8 -40.2 -25.2 -61 -1.4 -5 -2.8 -10.4 -3.4 -12 -.4 -1.6 -1.2 -18.2 -1.8 -36.6 -1 -34 .2 -46.2 6.6 -69.4 16.8 -59 61 -105.6 121.2 -127.2 21.6 -7.8 40 -10.2 85 -10.6 48 -.4 52 -.8 81.6 -7.4 45 -10.4 88.4 -40.4 114.2 -79.2 18.4 -27.6 35 -71.2 38 -99.6 5.8 -56.2 23.2 -81.2 69 -99.2 7.8 -3.2 19 -3.6 103 -4.2 l94.4 -.8 5.4 4.6 5.2 4.6 .2 114 c0 75.8 .6 114.8 2 116.4 1.4 1.8 1.4 2.6 -.2 2.6 -3.2 0 -1.8 36.4 1.4 37.6 1.4 .4 2.4 -.2 2.4 -1.4 0 -1.2 1.6 -2.2 3.4 -2.2 1.8 0 2.6 -.6 1.8 -1.6 -.8 -.8 -2.6 -1.4 -3.8 -1.4 -2.8 0 -3.6 -8.6 -1.2 -10.2 1 -.6 1.8 .6 2 2.6 0 2 .6 2.6 1.2 1.2 .4 -1.4 2.2 -2.6 3.8 -2.6 1.8 0 2.6 .8 1.8 1.8 -.6 1 .4 3.4 2.2 5 1.6 1.8 2.4 3.2 1.4 3.2 -.8 0 -.2 1 1.4 2 2.2 1.4 1 2 -5 2 -6 0 -7.2 .6 -5 2 2.4 1.6 2.2 2 -1.2 2 -4 0 -8.8 3.4 -8.8 6.4 0 .8 39.4 1.4 87.6 1.4 48 -.2 84.2 -1 80.4 -1.8 -3.8 -.8 -5.4 -1.6 -3.6 -1.8 2.2 -.2 3 -1.2 2.4 -3.2 -1 -2.6 1.2 -3 14 -3 12.4 0 15.2 .6 15.2 3.2 0 1.6 1 2.4 2 1.8 1.2 -.6 2 -.2 2 1.2 0 1.4 -2.2 2 -6 1.4 -3.2 -.6 -6 -.2 -6 .8 0 .8 19.6 1.6 43.6 1.8 64 .4 79.6 1 97.4 4.8 23.6 4.8 56.2 19.4 76 33.8 16.2 12 42.2 42.2 51.6 60.2 3 5.6 4.4 7 5 4.6 .4 -2 1.8 -3 3.8 -2.2 1.6 .6 3.8 0 4.6 -1.4 1.6 -2.6 6 -1 6 2.2 0 1.2 -.8 1.6 -1.8 .8 -4.4 -2.6 -3.8 3 .8 8.2 2.8 3.2 5 7 5 8.4 0 2 .6 2 3 -.4 1.6 -1.6 2.4 -4.4 1.8 -6 -.6 -1.8 -.2 -3.2 1 -3.2 1.2 0 2.2 1 2.2 2.2 0 1 1 1.4 2 .8 1.2 -.6 2 -.2 2 .8 0 1.2 -1.2 2.2 -2.4 2.2 -2 0 -1.8 .6 .2 1.8 2.2 1.4 2.2 1.8 0 2.8 -1.6 .6 -1 1.2 1.6 1.2 4.2 .2 4.2 .6 -2 7.2 -3.4 3.8 -8 7 -10 7 -3.2 0 -3.4 -.4 -.6 -3 1.6 -1.6 3.8 -3 5 -3 1.2 0 2.2 -1.6 2.2 -3.4 0 -2 -.8 -2.8 -1.6 -1.6 -.8 1.2 -3 2.2 -4.8 2.6 -2.6 .4 -3.2 -.4 -2.2 -2.8 .8 -2 .4 -3 -.6 -2.2 -1.2 .6 -3.2 .2 -4.8 -.8 -2.4 -1.6 -2.4 -2.4 -.4 -3.2 1.2 -.4 2.4 -1.8 2.4 -2.8 0 -1.2 -1 -1.4 -2 -.8 -1.2 .8 -3.4 .2 -5 -1 -4.4 -3.6 -3.8 3 1 13.6 3.8 8.4 10 34.6 10 42.4 0 2.2 1 4 2.2 4 1 0 1.4 -.8 .8 -2 -.6 -1.2 .2 -2 2 -2 3 0 3 -.2 0 -3.2 -1.8 -1.8 -2.6 -3.8 -1.8 -4.6 .8 -.6 1.8 0 2.2 1.4 .6 1.2 3.4 2.4 6.2 2.2 3 0 4.2 -.6 3 -1.2 -2 -.6 -2 -1.6 .2 -3.8 3 -3 6 -3.8 4.6 -1.2 -1 1.4 3.4 6.6 5.6 6.4 3.8 -.2 4.8 .4 5.8 3.2 .8 2.4 .4 3 -1.8 2.2 -1.6 -.8 -4 0 -5.4 1.4 -2.2 2.2 -3.2 2.2 -5.2 -.2 -1.4 -1.4 -3.6 -2.2 -4.8 -1.4 -1.2 .8 -1 1.8 .6 3 1.6 1 2 1.8 .8 1.8 -1 0 -.6 1 1 2 2.4 1.6 2 2 -2 2 -3.6 0 -4.2 .6 -2.2 1.8 2.2 1.4 2.2 1.8 0 2.8 -1.6 .6 -.8 1.2 1.8 1.2 4.4 .2 4.4 .4 1.2 3.6 -3 3.2 -3.4 3.2 -5.8 -.2 -2.6 -3.4 -2.8 -3.4 -5 .6 -1.8 3.6 -1.6 4.2 2.4 4.4 4.4 .2 4.4 .2 -.4 1.6 -4.4 1.2 -5 2.6 -5.6 10.8 -.4 6.6 .4 10.4 2.6 12.6 1.8 1.8 2.6 3.8 2 4.4 -.6 .8 -2 0 -2.8 -1.4 -1.4 -2.2 -2 -2.2 -3.4 0 -.8 1.4 -.6 2.8 .8 3.4 1.4 .4 2.4 1.6 2.4 2.6 0 1.2 -.8 1.6 -1.8 1 -2.4 -1.6 -3.6 2.4 -3.4 9.4 .2 3 -.4 5.4 -1 5.4 -.8 0 -2.2 2 -2.8 4.6 -2.6 9 -12 32.6 -14.6 36.8 -2.2 3.4 -2.2 4.4 0 5.2 1.8 .8 1.6 1.2 -.6 1.2 -1.8 .2 -6.4 5 -10.2 10.8 -15.4 22.8 -39.4 44.8 -65.2 59.4 -6.8 3.8 -12.4 7.6 -12.4 8.2 0 .6 2.2 3.6 4.8 6.4 21.2 22.8 36.2 48 43.4 73.4 5.4 18.2 5.8 21.4 6.2 43.4 0 12 1 20.2 2.4 21 1.4 1 .8 1.6 -1.2 1.6 -2 0 -3.6 1.4 -3.6 3 0 1.6 1 3 2 3 1.2 0 2 .8 2 2 0 1 -1.2 1.4 -2.6 .8 -1.6 -.6 -3.6 2 -5.2 6.6 -6 17.8 -23.2 36.6 -39 42.6 -2.8 1 -5.2 2.6 -5.2 3.6 0 1 5 8 11.2 15.6 18.6 23.2 31.4 52.8 37.6 87 4.6 25.8 3.2 80.2 -2.8 98.8 -7.6 24.4 -20 40 -39.6 49.8 -12.6 6.2 -18.8 7.6 -35 7.4 -17 -.2 -27.8 -2.8 -83.4 -21.2 -130.8 -42.8 -255.6 -81.4 -258.4 -79.8 -2.2 1.4 -1.6 215.6 .8 237.8 1 10.2 3.4 21.4 5.6 26 4.6 9.4 18 23 28.4 28.8 9.4 5.2 28.8 10.2 39 10.2 4.4 0 10.8 1 14.2 2.2 8.2 2.8 8.8 7.6 8 62 -.4 32.8 -1.2 44 -3.4 46.4 -2.4 3 -20.2 3.4 -213 3 -115.6 -.2 -213 -.6 -216.6 -1z m398.4 -55.4 l0 -23.8 -16 -4.4 c-21 -5.6 -35.2 -13.2 -48.6 -25.6 -12 -11.6 -18.2 -21.2 -24.8 -38.6 -4.4 -11.6 -4.6 -13.2 -5.6 -145.6 l-1 -133.8 -12 -3.4 c-38.4 -11 -58.6 -25.4 -71.2 -51.2 l-6.8 -13.8 -.6 -220.4 -.4 -220.6 16 0 16 0 0 27.6 c.2 15 .6 44.8 1 66.2 1 37.2 1.2 39 6.4 48.4 6 11.2 18.2 20.4 33 24.8 11.2 3.2 32.6 5.6 88.6 10 140.2 10.8 194.8 20.6 228.8 40.8 25.4 15 35 30.8 39 64 3.2 24.8 6.4 33.4 14.8 40.6 9.2 7.6 19 10.2 34.2 9 12.6 -1 13.6 -1.4 21.6 -10.4 10.4 -11.4 13.2 -20.8 13 -43 -1 -66.2 -47 -114.2 -130.6 -136 -42 -10.8 -81.6 -16 -195.8 -25 -35.8 -3 -71.2 -5.8 -79 -6.6 l-14 -1.4 -.6 -55.6 -.4 -55.6 167.4 .6 167.6 .6 11 5.2 c22 10.4 31.4 26.8 29.6 52 -1.6 22.4 -14.8 38.6 -40.6 50 -5.2 2.4 -8.6 4.8 -7.8 5.8 3.6 3.2 41 18 45.6 18 12.4 0 54.6 -30.4 70.6 -50.8 22.8 -29 33.4 -62 33.2 -103.2 -.2 -30.8 -4.4 -48.4 -18 -74.6 -7.6 -14.6 -13 -22 -27.6 -36.6 -15.4 -15.6 -20.8 -19.6 -37 -27.6 -36.8 -18 -27 -17.2 -222.4 -17.2 l-171.6 0 0 -146 0 -146 -71.6 0 c-89.6 0 -101.4 2 -119.6 19.6 -10.2 9.8 -14 19.8 -18.6 47.8 -11.6 71 -33.6 117 -75 157.6 -30.4 29.8 -59.8 45.8 -105.8 58 -23.6 6.2 -53.4 9 -98.4 9 -30.2 0 -38.4 .6 -51 4.2 -76.2 21 -123.8 89 -119.4 169.8 3 52.6 22.6 96 60.2 133 27.2 27 53.4 42.6 93.8 56 36 11.8 53.4 14 115.4 14 59.6 0 75.8 -1.4 168 -15 7.2 -1 19 -2.4 26.6 -3 l13.4 -1.4 0 17 0 16.8 -7.4 1.2 c-4.2 .8 -36 5 -70.6 9.4 -136.4 17.8 -195.6 29.8 -245 49.4 -48.6 19.2 -76.4 45.6 -90.4 86 -4.8 13.6 -5.4 18.8 -5.6 39.6 0 21.2 .6 25 4.4 32.4 7.4 13.6 16.6 19.4 32.8 20.2 11.8 .8 14.8 .2 22.4 -4.2 12.4 -7.2 18.8 -20 20.4 -40.4 .8 -8.8 3 -22 5.2 -29.4 3.2 -11.2 6 -15.8 16 -26.4 21.4 -23 60.2 -37.6 130.8 -49 96.6 -15.6 158.8 -24.2 175.4 -24.2 l11.6 0 -.4 67.4 -.6 67.4 -47 6.4 c-182 25 -272 50.8 -328.4 94.2 -46.4 35.6 -57.4 93.4 -21.2 111.4 12.6 6.2 23.4 6.6 34.8 1 11 -5.2 18 -14.6 23.8 -31.8 19.2 -56.2 77.2 -79.8 268 -109 18.8 -3 41.2 -6.6 50.2 -8.2 8.8 -1.6 17.2 -2.8 18.4 -2.8 1.8 0 2.4 36.4 2.4 148.6 0 161.2 .2 159.4 -11.2 181.8 -12.6 24.6 -42 46 -71.4 51.6 l-13.4 2.4 0 24.8 0 24.8 186.6 -.4 186.4 -.6 0 -23.8z m295.2 -293.4 c3.8 -1.4 9.8 -5.2 13.4 -8.6 15.2 -14.2 19.4 -32 17.8 -76.8 -2 -55.4 -14.4 -85.4 -50.8 -121.8 -48.4 -48.4 -123.6 -75.8 -301.6 -109.6 -26.4 -5 -52.6 -10 -58.4 -11.2 l-10.2 -2 1 -25.6 1.2 -25.4 -15.8 -3.4 c-8.6 -2 -21.2 -5.8 -27.8 -8.6 -21.6 -9.2 -19.4 -13.8 -18.6 39.6 .8 44.8 1 47.4 5.8 56.8 5.2 10.8 18.4 21.2 31.4 24.8 4 1.2 36.2 7.4 71.4 14.2 72.6 13.6 134.2 28.2 165 38.8 31.2 10.6 70.4 30.8 87.2 44.8 25.8 21.4 36.4 43.6 38.6 79.8 .6 12.2 .8 22.4 .4 22.4 -.4 0 -21.4 -6.6 -47 -14.8 -47.2 -15.2 -126.8 -40 -221.2 -69.2 -29.2 -9 -57.4 -17.6 -62.6 -19.4 l-9.6 -3 .6 -27 .6 -27.2 -5 -.8 c-11.4 -1.6 -37 -9 -44.2 -12.6 -4.2 -2.2 -8.6 -4 -9.8 -4 -2.6 0 -2.6 63 -.2 82.6 2.2 16.4 9.4 29.2 21.2 37.6 8.8 6.4 32.2 15.2 79 29.8 85.6 26.6 210 65.8 250 79 72.6 23.8 82.4 26 98.2 20.8z m-92 -128.4 c-15.6 -25.4 -57.6 -49.6 -114.4 -66.2 -33.8 -9.8 -87.2 -22 -118 -27 -13.8 -2.2 -26.6 -4.6 -28.4 -5.4 -3 -1 -3.4 .4 -3.4 11.8 l0 13 38.6 12.4 c21 6.8 54.2 17.2 73.4 23 39.6 12 110.2 33.8 137 42.4 10 3.2 18.2 5.2 18.6 4.2 .4 -.8 -1.2 -4.6 -3.4 -8.2z m-694 -47.2 c52 -11.6 94.8 -18.8 173.4 -29.4 l8.4 -1 0 -37 0 -37.2 -5.4 1.2 c-3.2 .6 -14.6 2.4 -25.6 4 -155.8 23 -194.6 31.8 -220 49.2 -14.4 10 -20.4 20.8 -22 40.6 -1.2 14.8 -3.4 27 -6.2 34.4 -.8 1.8 8 -.4 25.8 -6 14.8 -4.8 47 -13.2 71.6 -18.8z m700.4 -125.6 c-3.6 -40.2 -29 -53.8 -123.6 -66.4 -35.6 -4.8 -86.2 -9.6 -121.4 -11.4 l-25.4 -1.4 -1.2 7 c-3.2 16.6 -5.6 15.2 50 26.8 132 27.2 137.4 28.4 191 47.4 13.8 5 26.6 9 28.4 9.2 2.8 .2 3.2 -1.4 2.2 -11.2z m-18 -188 c4 -10 8 -13.4 21.4 -17.6 26.8 -8.6 39.4 -19.4 37 -32 -1.4 -7.8 -8.2 -14.6 -16.8 -17.2 -4.8 -1.2 -57 -1.8 -151.2 -1.4 l-144 .6 0 25 0 25 24 1.4 c59 3.4 164 14 202 20.4 24.4 4.2 24.2 4.2 27.6 -4.2z M693 945.8 c-59.2 -7.6 -104.6 -33 -122 -68.4 -7.2 -15.2 -8 -34.2 -1.4 -46.8 5 -9.6 16.4 -19.6 26.4 -23 5.2 -1.8 51.2 -2.6 172.6 -3.2 l165.4 -.6 0 65.8 0 65.6 -32.4 3.6 c-68.8 7.4 -95.8 9 -144.6 8.8 -27.4 0 -56.2 -1 -64 -1.8z m120 -30.8 c10 -.6 32.8 -3 51 -5.2 18.2 -2 34.2 -3.8 35.6 -3.8 1.8 0 2.4 -8.4 2.4 -35 l0 -35 -145.2 0 -145.2 0 -6.8 6.8 c-3.8 3.8 -6.8 8.4 -6.8 10.4 .2 13.6 19.2 34.4 40.8 44.6 34.6 16.6 96.6 22.6 174.2 17.2z" />
 </g>
</svg>
